<svg width="32" height="32" viewBox="0 0 32 32" fill="none" xmlns="http://www.w3.org/2000/svg">
<g clip-path="url(#clip0_4132_21837)">
<path fill-rule="evenodd" clip-rule="evenodd" d="M16.0002 0.727272C12.198 0.723407 8.5187 2.0737 5.62164 4.53617C2.72458 6.99863 0.799117 10.4123 0.190339 14.1655C-0.418438 17.9186 0.329253 21.7659 2.29941 25.0178C4.26956 28.2698 7.33341 30.7139 10.9419 31.912C11.7375 32.0594 12.0321 31.5584 12.0321 31.1361C12.0321 30.7138 12.0321 29.7512 12.0321 28.4154C7.58276 29.3976 6.63985 26.2742 6.63985 26.2742C6.34337 25.3062 5.71352 24.4745 4.86207 23.9268C3.41824 22.9446 4.97993 22.9446 4.97993 22.9446C5.48606 23.0161 5.96927 23.2018 6.39299 23.4877C6.81672 23.7736 7.16984 24.1521 7.42561 24.5947C7.64293 24.9887 7.93592 25.336 8.28777 25.6165C8.63963 25.8971 9.04343 26.1054 9.47599 26.2295C9.90854 26.3536 10.3613 26.3911 10.8084 26.3398C11.2555 26.2884 11.688 26.1494 12.0812 25.9305C12.1429 25.1225 12.4912 24.3631 13.0634 23.7893C9.50786 23.3866 5.77551 22.0115 5.77551 15.8826C5.7511 14.2944 6.33838 12.7575 7.41578 11.5904C6.93496 10.2096 6.99106 8.69845 7.57293 7.35711C7.57293 7.35711 8.91854 6.92494 11.9732 8.99737C14.5962 8.27719 17.3649 8.27719 19.9879 8.99737C23.0425 6.92494 24.3783 7.35711 24.3783 7.35711C24.9663 8.69655 25.0259 10.2088 24.5453 11.5904C25.6227 12.7575 26.21 14.2944 26.1856 15.8826C26.1856 22.0311 22.4434 23.3767 18.878 23.7402C19.2603 24.1245 19.5555 24.5865 19.7437 25.0949C19.9318 25.6033 20.0084 26.1462 19.9683 26.6867C19.9683 28.8279 19.9683 30.5566 19.9683 31.0772C19.9683 31.5977 20.2531 32.0004 21.0683 31.8531C24.6655 30.6436 27.716 28.1957 29.6758 24.9459C31.6356 21.6961 32.3772 17.8558 31.7685 14.1099C31.1597 10.3641 29.2401 6.95624 26.352 4.49431C23.4639 2.03239 19.7952 0.676446 16.0002 0.668335V0.727272Z" fill="#8193B5"/>
</g>
<defs>
<clipPath id="clip0_4132_21837">
<rect width="32" height="32" fill="white"/>
</clipPath>
</defs>
</svg>
