<svg width="32" height="32" viewBox="0 0 32 32" fill="none" xmlns="http://www.w3.org/2000/svg">
<path d="M18.0502 16.0871C18.0502 21.1057 14.0095 25.174 9.02524 25.174C4.04103 25.174 0 21.1057 0 16.0871C0 11.0686 4.04072 7 9.02524 7C14.0098 7 18.0502 11.0686 18.0502 16.0871Z" fill="#8193B5"/>
<path d="M27.9501 16.0868C27.9501 20.8106 25.9297 24.6416 23.4374 24.6416C20.9452 24.6416 18.9248 20.8106 18.9248 16.0868C18.9248 11.3629 20.9449 7.53198 23.4371 7.53198C25.9294 7.53198 27.9498 11.3617 27.9498 16.0868" fill="#8193B5"/>
<path d="M32 16.0868C32 20.3183 31.2896 23.7506 30.413 23.7506C29.5363 23.7506 28.8262 20.3192 28.8262 16.0868C28.8262 11.8544 29.5366 8.42297 30.413 8.42297C31.2893 8.42297 32 11.8541 32 16.0868Z" fill="#8193B5"/>
</svg>
